<svg width="102" height="101" viewBox="0 0 102 101" fill="none" xmlns="http://www.w3.org/2000/svg">
<path d="M50.4792 50.7677C50.5268 50.7246 50.5755 50.6792 50.622 50.6361C50.6685 50.5929 50.7172 50.5476 50.7637 50.5022C43.0008 41.8937 43.7712 27.9431 51.9127 16.9026C50.6685 14.9463 49.2107 13.0564 47.5403 11.2739C35.8954 -1.16083 18.3926 -3.6969 8.45013 5.60756C-1.49344 14.912 -0.113094 32.535 11.5329 44.9698C13.2033 46.7523 14.9921 48.3324 16.8628 49.7022C28.4214 42.3075 42.3975 42.4591 50.4792 50.7689V50.7677Z" fill="currentColor"/>
<path d="M50.7394 50.4814C50.6929 50.5235 50.6453 50.5678 50.5988 50.6109C50.5523 50.6541 50.5059 50.6983 50.4605 50.7426C58.4581 59.2847 57.7009 73.4057 49.4144 84.5646C50.6011 86.3892 51.9759 88.1529 53.54 89.8215C65.1074 102.172 82.5449 104.642 92.4885 95.3374C102.431 86.0329 101.116 68.4763 89.5485 56.1256C87.9855 54.456 86.3162 52.9688 84.5706 51.6654C72.8847 59.1928 58.7381 59.0202 50.7394 50.4814Z" fill="currentColor"/>
<path d="M50.4606 50.7422C50.3732 50.6482 50.2857 50.5563 50.1972 50.4656C41.6661 58.2973 27.7442 57.5881 16.6904 49.5151C14.7898 50.7334 12.9534 52.1552 11.2199 53.7784C-1.16778 65.37 -3.68162 82.806 5.60333 92.7191C14.8883 102.633 32.4575 101.272 44.8441 89.6806C46.5598 88.0751 48.0852 86.359 49.4168 84.5642C41.8653 72.9406 41.9993 58.8118 50.4629 50.7422H50.4606Z" fill="currentColor"/>
<path d="M56.3546 11.5395C54.62 13.1627 53.0803 14.8999 51.7387 16.7157C59.0699 28.2718 58.8596 42.2058 50.4801 50.1991C50.5653 50.2942 50.6506 50.3872 50.738 50.4801C59.3511 42.571 73.4644 43.3665 84.5692 51.6652C86.4488 50.4558 88.2619 49.0461 89.9777 47.4417C102.365 35.8501 104.88 18.4152 95.5953 8.5022C86.3104 -1.41193 68.7412 -0.0520552 56.3535 11.5395H56.3546Z" fill="currentColor"/>
</svg>
