<svg width="101" height="101" viewBox="0 0 101 101" fill="none" xmlns="http://www.w3.org/2000/svg">
<path d="M100.766 24.2204V0H76.6583C62.8959 0 51.6087 10.6418 50.5006 24.1811C49.3915 10.6418 38.1043 0 24.3419 0H0.233887V24.2204C0.233887 38.047 10.8263 49.3868 24.3028 50.5C10.8263 51.6132 0.233887 62.953 0.233887 76.7796V101H24.3419C38.1043 101 49.3915 90.3582 50.4995 76.8189C51.6076 90.3582 62.8948 101 76.6572 101H100.765V76.7796C100.765 62.953 90.1728 51.6132 76.6963 50.5C90.1728 49.3868 100.765 38.047 100.765 24.2204H100.766ZM50.4303 69.2014C48.394 54.164 46.7442 52.5065 31.7766 50.4607C46.7442 48.415 48.394 46.7575 50.4303 31.72C52.4665 46.7575 54.1163 48.415 69.084 50.4607C54.1163 52.5065 52.4665 54.164 50.4303 69.2014Z" fill="white"/>
</svg>
