<svg width="102" height="101" viewBox="0 0 102 101" fill="none" xmlns="http://www.w3.org/2000/svg">
<path d="M76.1331 50.556C90.0133 50.556 101.266 39.2633 101.266 25.3341C101.266 11.4048 90.0133 0.112098 76.1331 0.112098C62.2529 0.112098 51.0312 11.3745 51.0011 25.278H51C51 25.259 51 25.241 51 25.222C51 11.2927 39.747 0 25.8669 0C11.9867 0 0.733765 11.2927 0.733765 25.222C0.733765 39.1512 11.9867 50.444 25.8669 50.444C11.9867 50.444 0.733765 61.7367 0.733765 75.6659C0.733765 89.5952 11.9867 100.888 25.8669 100.888C39.747 100.888 51 89.5952 51 75.6659H51.0011C51.0011 75.7029 51 75.741 51 75.778C51 89.7073 62.2529 101 76.1331 101C90.0133 101 101.266 89.7073 101.266 75.778C101.266 61.8488 90.0133 50.556 76.1331 50.556ZM65.6375 36.7882C62.874 41.1892 59.0895 45.9533 54.818 50.4686C59.8111 55.7282 64.2278 61.4329 67.112 66.7441C61.8195 63.8486 56.1372 59.4196 50.8972 54.41C45.6572 59.4196 39.9738 63.8497 34.6825 66.7441C37.5689 61.4318 41.9833 55.7282 46.9764 50.4686C42.7072 45.9544 38.9238 41.1925 36.1569 36.7882C35.642 35.9486 35.136 35.1 34.6825 34.1999C35.5794 34.6561 36.425 35.1628 37.2617 35.6796C41.6482 38.454 46.3967 42.253 50.8972 46.5407C55.3955 42.2552 60.144 38.4562 64.5328 35.6796C65.3694 35.1628 66.215 34.655 67.112 34.1999C66.6573 35.1 66.1524 35.9486 65.6375 36.7882Z" fill="white"/>
</svg>
